<?xml version="1.0" encoding="UTF-8" standalone="no"?>
<svg
   xmlns:dc="http://purl.org/dc/elements/1.1/"
   xmlns:cc="http://creativecommons.org/ns#"
   xmlns:rdf="http://www.w3.org/1999/02/22-rdf-syntax-ns#"
   xmlns:svg="http://www.w3.org/2000/svg"
   xmlns="http://www.w3.org/2000/svg"
   xmlns:sodipodi="http://sodipodi.sourceforge.net/DTD/sodipodi-0.dtd"
   xmlns:inkscape="http://www.inkscape.org/namespaces/inkscape"
   version="1.1"
   x="0px"
   y="0px"
   width="128"
   height="128"
   viewBox="0, 0, 128, 128"
   id="svg3753"
   sodipodi:docname="enabled.svg"
   inkscape:version="0.92.3 (2405546, 2018-03-11)"
   inkscape:label="Disabled">
  <metadata
     id="metadata3757">
    <rdf:RDF>
      <cc:Work
         rdf:about="">
        <dc:format>image/svg+xml</dc:format>
        <dc:type
           rdf:resource="http://purl.org/dc/dcmitype/StillImage" />
        <dc:title />
      </cc:Work>
    </rdf:RDF>
  </metadata>
  <sodipodi:namedview
     pagecolor="#ffffff"
     bordercolor="#666666"
     borderopacity="1"
     objecttolerance="10"
     gridtolerance="10"
     guidetolerance="10"
     inkscape:pageopacity="0"
     inkscape:pageshadow="2"
     inkscape:window-width="1280"
     inkscape:window-height="737"
     id="namedview3755"
     showgrid="false"
     inkscape:zoom="4.3852551"
     inkscape:cx="31.336916"
     inkscape:cy="60.425044"
     inkscape:window-x="-8"
     inkscape:window-y="-8"
     inkscape:window-maximized="1"
     inkscape:current-layer="g3749" />
  <g
     id="Background">
    <rect
       x="0"
       y="0"
       width="128"
       height="128"
       id="rect3736"
       style="fill:#000000;fill-opacity:0" />
  </g>
  <g
     id="g3749"
     inkscape:label="disabled">
    <path
       inkscape:connector-curvature="0"
       style="fill:#737370;stroke-width:1.00000024"
       d="M 18.092026,6 H 109.90325 C 116.55245,6 122,11.441023 122,18.096029 V 109.90196 C 122,116.55905 116.55245,122 109.90325,122 H 18.092026 C 11.436019,122 6,116.55905 6,109.90196 V 18.096029 C 6,11.441023 11.436019,6 18.092026,6"
       id="path3836"
       inkscape:label="back" />
    <path
       style="fill:#82d1f5;fill-opacity:1;stroke-width:0.83252853"
       inkscape:connector-curvature="0"
       id="path2"
       d="m 63.99731,38.999999 c -7.7242,0 -13.98981,6.264778 -13.98981,13.994805 0,2.544208 0.713477,4.910254 1.864864,6.985748 3.435013,6.192347 4.346631,9.668154 4.908588,13.032402 0.469546,2.819774 1.118919,3.474974 3.248527,3.474974 0.908288,0 2.388524,0 3.967831,0 1.582637,0 3.066202,0 3.968663,0 2.133771,0 2.783976,-0.6552 3.25269,-3.474974 0.563621,-3.365913 1.474408,-6.842553 4.908588,-13.032402 1.15555,-2.074662 1.864864,-4.440708 1.864864,-6.985748 0.0025,-7.73086 -6.263112,-13.994805 -13.994805,-13.994805 z" />
    <g
       id="g29"
       style="fill:#ebeded;fill-opacity:1">
      <path
         d="M 69.003304,77.501115 H 59.002138 c -0.416264,0 -0.751773,0.334677 -0.751773,0.749276 v 0.501182 c 0,0.412934 0.335509,0.749276 0.751773,0.749276 h 10.001166 c 0.410437,0 0.746778,-0.336342 0.746778,-0.749276 v -0.501182 c 0.0017,-0.414599 -0.336341,-0.749276 -0.746778,-0.749276 z"
         id="path4"
         inkscape:connector-curvature="0"
         style="fill:#ebeded;fill-opacity:1;stroke-width:0.83252853" />
      <path
         d="M 69.003304,80.500716 H 59.002138 c -0.416264,0 -0.751773,0.333011 -0.751773,0.749275 v 0.501182 c 0,0.412935 0.335509,0.747611 0.751773,0.747611 h 10.001166 c 0.410437,0 0.746778,-0.334676 0.746778,-0.747611 v -0.501182 c 0.0017,-0.415432 -0.336341,-0.749275 -0.746778,-0.749275 z"
         id="path6"
         inkscape:connector-curvature="0"
         style="fill:#ebeded;fill-opacity:1;stroke-width:0.83252853" />
      <path
         d="M 69.003304,83.501148 H 59.002138 c -0.416264,0 -0.751773,0.334677 -0.751773,0.749276 v 0.501182 c 0,0.4146 0.335509,0.749276 0.751773,0.749276 h 10.001166 c 0.410437,0 0.746778,-0.334676 0.746778,-0.749276 v -0.501182 c 0.0017,-0.414599 -0.336341,-0.749276 -0.746778,-0.749276 z"
         id="path8"
         inkscape:connector-curvature="0"
         style="fill:#ebeded;fill-opacity:1;stroke-width:0.83252853" />
      <path
         d="m 60.250931,86.500749 h 7.50358 C 67.754511,88.000133 65.751447,89 63.99731,89 62.251497,89 60.250931,88.000133 60.250931,86.500749 Z"
         id="path10"
         inkscape:connector-curvature="0"
         style="fill:#ebeded;fill-opacity:1;stroke-width:0.83252853" />
    </g>
    <rect
       style="fill:#82d1f5;fill-opacity:1"
       id="rect4555"
       width="15"
       height="25"
       x="56.5"
       y="6"
       ry="4" />
    <rect
       y="97"
       x="56.5"
       height="25"
       width="15"
       id="rect4557"
       style="fill:#82d1f5;fill-opacity:1"
       ry="4" />
    <rect
       y="-122"
       x="56.5"
       height="35"
       width="15"
       id="rect4559"
       style="fill:#82d1f5;fill-opacity:1;stroke-width:1.18321598"
       transform="rotate(90)"
       ry="4" />
    <rect
       transform="rotate(90)"
       style="fill:#82d1f5;fill-opacity:1;stroke-width:1.18321598"
       id="rect4561"
       width="15"
       height="35"
       x="56.5"
       y="-41"
       ry="4" />
  </g>
  <defs
     id="defs3751" />
</svg>
